<svg xmlns="http://www.w3.org/2000/svg" viewBox="0 0 411 118">
  <rect width="6.24" height="86" x="248.01" y="10" fill="#111" rx=".5"/>
  <rect width="6" height="86" x="264.25" y="10" fill="#111" rx=".51"/>
  <path fill="#49C7B9" d="M83.25 42.33v43.11a.95.95 0 0 1-.47.82l-37.54 21.73a.95.95 0 0 1-.94 0L6.48 86.26a.95.95 0 0 1-.48-.82V42.31a.95.95 0 0 1 .48-.82l37.77-21.45a.95.95 0 0 1 .94 0l37.58 21.47a.95.95 0 0 1 .48.82Zm-38.71-5.5a.36.36 0 0 1 .36 0l19.68 11.28a.36.36 0 0 0 .36 0l6.74-3.78a.36.36 0 0 0 0-.63L44.92 28.36a.36.36 0 0 0-.36 0L17.78 43.68a.36.36 0 0 0 0 .62l6.56 3.86a.36.36 0 0 0 .36.01l19.84-11.34ZM41 47.87a.39.39 0 0 0-.58-.34l-11.97 6.85a.39.39 0 0 0-.2.34v13.57a.39.39 0 0 0 .58.34l11.97-6.81a.39.39 0 0 0 .2-.34V47.87Zm20 6.82a.37.37 0 0 0-.19-.32l-11.76-6.78a.37.37 0 0 0-.55.32v13.61a.37.37 0 0 0 .18.32l11.76 6.83a.37.37 0 0 0 .56-.32V54.69Zm-40.42-.44-6.56-3.69q-.53-.3-.53.31l.01 30.36q0 .51.45.77l26.36 15.05q.69.39.69-.4V89.6q0-.6-.52-.9L21.46 77.82a.93.93 0 0 1-.46-.8V54.98q0-.49-.42-.73Zm47.5 23.55L48.97 88.74a.92.92 0 0 0-.46.78l-.04 7.64q0 .36.31.18l26.78-15.37q.44-.26.44-.77V50.92q0-.62-.55-.33l-6.51 3.53q-.44.24-.44.74v22.22q0 .48-.42.72Zm-11.27-2.56-11.73-6.76q-.37-.21-.74 0l-12.06 6.86q-.29.17 0 .33l12.11 6.83a.78.76-44.3 0 0 .75 0l11.67-6.75q.45-.26 0-.51Z"/>
  <path fill="#111" d="M110.59 118h-6.06V33.74q0-.49.49-.49h5.24q.51 0 .51.51L110.71 45q0 .24.15.06 12.43-14.89 30.36-12.23c37.6 5.57 36.24 60.11-1.54 63.82q-17.88 1.75-28.75-12.72-.28-.37-.28.09l-.06 33.98Zm52.24-53.36a26.3 26.3 0 0 0-26.3-26.3 26.3 26.3 0 0 0-26.3 26.3 26.3 26.3 0 0 0 26.3 26.3 26.3 26.3 0 0 0 26.3-26.3Z"/>
  <path fill="#111" d="M239.78 64.62A32.28 32.28 0 0 1 207.5 96.9a32.28 32.28 0 0 1-32.28-32.28 32.28 32.28 0 0 1 32.28-32.28 32.28 32.28 0 0 1 32.28 32.28Zm-31.8563 26.3468a26.34 26.24 89.1 0 0 25.8231-26.749 26.34 26.24 89.1 0 0-26.6505-25.9246 26.34 26.24 89.1 0 0-25.8231 26.749 26.34 26.24 89.1 0 0 26.6505 25.9246ZM285.08 67.24c1 11.83 8.36 20.32 19.89 22.92 11.35 2.56 23.81-1 30-11.53q.31-.52.81-.18l3.74 2.53q.36.25.13.62c-7.94 12.99-22.31 17.67-36.78 14.19-25-6.02-32.65-37.94-13.93-55.11 12.56-11.51 33.27-10.85 45.08 1.61q9.03 9.53 7.94 24a.49.49 0 0 1-.49.46h-55.95q-.48 0-.44.49Zm38.38-25.63c-15.55-8.41-36.2.13-38.35 19.21a.39.39 0 0 0 .39.43h49.99q.47 0 .4-.47-2.13-13.6-12.43-19.17Zm33.73.28q10.2-12.09 26.3-8.83c12.38 2.51 18.32 12.65 18.42 24.76q.17 18.83.07 37.68-.01.5-.5.5h-5.22q-.51 0-.51-.52-.01-17.87.04-35.73c.03-11.14-4.46-20.36-16.72-21.27-16.67-1.25-22.47 10.27-22.36 24.84q.11 16.08.01 32.13 0 .55-.55.55h-5.05q-.62 0-.62-.63V33.75q0-.5.5-.5h5.25q.5 0 .5.5v7.98q0 .69.44.16Z"/>
</svg>
